<?xml version="1.0" encoding="utf-8"?>
<!-- Generator: Adobe Illustrator 26.1.0, SVG Export Plug-In . SVG Version: 6.00 Build 0)  -->
<svg version="1.1" id="Слой_1" xmlns="http://www.w3.org/2000/svg" xmlns:xlink="http://www.w3.org/1999/xlink" x="0px" y="0px"
	 viewBox="0 0 40 40" style="enable-background:new 0 0 40 40;" xml:space="preserve">
<style type="text/css">
	.st0{fill:#232020;}
</style>
<g>
	<path class="st0" d="M17.6,17.8H2.1c-0.3,0-0.5-0.2-0.5-0.5V1.8c0-0.3,0.2-0.5,0.5-0.5h15.5c0.3,0,0.5,0.2,0.5,0.5v15.5
		C18.1,17.6,17.9,17.8,17.6,17.8z M3.5,15.9h12.7V3.2H3.5V15.9z"/>
	<path class="st0" d="M37.9,17.8H22.4c-0.3,0-0.5-0.2-0.5-0.5V1.8c0-0.3,0.2-0.5,0.5-0.5h15.5c0.3,0,0.5,0.2,0.5,0.5v15.5
		C38.4,17.6,38.2,17.8,37.9,17.8z M23.8,15.9h12.7V3.2H23.8V15.9z"/>
	<path class="st0" d="M17.6,38H2.1c-0.3,0-0.5-0.2-0.5-0.5V22c0-0.3,0.2-0.5,0.5-0.5h15.5c0.3,0,0.5,0.2,0.5,0.5v15.5
		C18.1,37.8,17.9,38,17.6,38z M3.5,36.1h12.7V23.4H3.5V36.1z"/>
	<path class="st0" d="M37.9,38H22.4c-0.3,0-0.5-0.2-0.5-0.5V22c0-0.3,0.2-0.5,0.5-0.5h15.5c0.3,0,0.5,0.2,0.5,0.5v15.5
		C38.4,37.8,38.2,38,37.9,38z M23.8,36.1h12.7V23.4H23.8V36.1z"/>
</g>
</svg>
