<?xml version="1.0" encoding="utf-8"?>
<!-- Generator: Adobe Illustrator 26.1.0, SVG Export Plug-In . SVG Version: 6.00 Build 0)  -->
<svg version="1.1" id="Слой_1" xmlns="http://www.w3.org/2000/svg" xmlns:xlink="http://www.w3.org/1999/xlink" x="0px" y="0px"
	 viewBox="0 0 40 40" style="enable-background:new 0 0 40 40;" xml:space="preserve">
<style type="text/css">
	.st0{fill:#232020;}
</style>
<g>
	<path class="st0" d="M13.8,34.4c-0.5,0-0.9-0.4-0.9-0.9v-10c0-0.5,0.4-0.9,0.9-0.9s0.9,0.4,0.9,0.9v9.2h19.1V7.2H14.6v9.7
		c0,0.5-0.4,0.9-0.9,0.9s-0.9-0.4-0.9-0.9V6.3c0-0.5,0.4-0.9,0.9-0.9h20.9c0.5,0,0.9,0.4,0.9,0.9v27.3c0,0.5-0.4,0.9-0.9,0.9H13.8z"
		/>
	<path class="st0" d="M34.6,33.9H13.8c-0.2,0-0.4-0.2-0.4-0.4v-10c0-0.2,0.2-0.4,0.4-0.4s0.4,0.2,0.4,0.4v9.6h20.1V6.7H14.1v10.2
		c0,0.2-0.2,0.4-0.4,0.4s-0.4-0.2-0.4-0.4V6.3c0-0.2,0.2-0.4,0.4-0.4h20.9c0.2,0,0.4,0.2,0.4,0.4v27.3C35,33.8,34.8,33.9,34.6,33.9z
		"/>
	<path class="st0" d="M5.2,21.1c-0.5,0-0.9-0.4-0.9-0.9s0.4-0.9,0.9-0.9h16.2c0.5,0,0.9,0.4,0.9,0.9s-0.4,0.9-0.9,0.9H5.2z"/>
	<path class="st0" d="M21.4,20.6H5.2c-0.2,0-0.4-0.2-0.4-0.4s0.2-0.4,0.4-0.4h16.2c0.2,0,0.4,0.2,0.4,0.4S21.6,20.6,21.4,20.6z"/>
	<path class="st0" d="M8.7,23.9c-0.2,0-0.4-0.1-0.5-0.2l-3.9-2.8c-0.2-0.2-0.4-0.4-0.4-0.7c0-0.3,0.1-0.6,0.4-0.7l3.9-2.8
		c0.2-0.1,0.3-0.2,0.5-0.2c0.3,0,0.6,0.1,0.7,0.4c0.3,0.4,0.2,0.9-0.2,1.2l-2.9,2.1l2.9,2.1c0.2,0.1,0.3,0.3,0.4,0.6
		c0,0.2,0,0.5-0.1,0.7C9.3,23.7,9,23.9,8.7,23.9z"/>
	<path class="st0" d="M8.7,23.4c-0.1,0-0.1,0-0.2-0.1l-3.9-2.8c-0.1-0.1-0.2-0.2-0.2-0.3c0-0.1,0.1-0.2,0.2-0.3l3.9-2.8
		C8.6,17,8.9,17,9,17.2s0.1,0.4-0.1,0.5l-3.5,2.5l3.5,2.5c0.2,0.1,0.2,0.4,0.1,0.5C8.9,23.3,8.8,23.4,8.7,23.4z"/>
</g>
</svg>
