<svg id="Слой_1" data-name="Слой 1" xmlns="http://www.w3.org/2000/svg" xmlns:xlink="http://www.w3.org/1999/xlink"
     viewBox="0 0 200.38 231.38">
    <defs>
        <style>
            .cls-1{fill:url(#linear-gradient);}.cls-2{fill:url(#linear-gradient-2);}.cls-3{fill:url(#linear-gradient-3);}.cls-4{fill:url(#linear-gradient-4);}.cls-5{fill:url(#linear-gradient-5);}.cls-6{fill:url(#linear-gradient-6);}
        </style>
        <linearGradient id="linear-gradient" x1="180.37" y1="166.82" x2="120.23" y2="122.43"
                        gradientUnits="userSpaceOnUse">
            <stop offset="0" stop-color="#0097f7"/>
            <stop offset="0.17" stop-color="#00a7f8"/>
            <stop offset="0.45" stop-color="#00bcfa"/>
            <stop offset="0.74" stop-color="#00c9fb"/>
            <stop offset="1" stop-color="#00cdfb"/>
        </linearGradient>
        <linearGradient id="linear-gradient-2" x1="52.02" y1="142.75" x2="-0.96" y2="194.29"
                        gradientUnits="userSpaceOnUse">
            <stop offset="0" stop-color="#006492"/>
            <stop offset="0.18" stop-color="#005881"/>
            <stop offset="0.46" stop-color="#004a6c"/>
            <stop offset="0.74" stop-color="#00415f"/>
            <stop offset="1" stop-color="#003e5b"/>
        </linearGradient>
        <linearGradient id="linear-gradient-3" x1="100.19" y1="49.56" x2="100.19" y2="5.75"
                        gradientUnits="userSpaceOnUse">
            <stop offset="0" stop-color="#ffbf00"/>
            <stop offset="1" stop-color="#ff9f00"/>
        </linearGradient>
        <linearGradient id="linear-gradient-4" x1="104.57" y1="124.81" x2="71.81" y2="99.04"
                        gradientUnits="userSpaceOnUse">
            <stop offset="0" stop-color="#0097f7"/>
            <stop offset="0.25" stop-color="#009df7"/>
            <stop offset="0.58" stop-color="#00adf9"/>
            <stop offset="0.95" stop-color="#00c9fb"/>
            <stop offset="1" stop-color="#00cdfb"/>
        </linearGradient>
        <linearGradient id="linear-gradient-5" x1="158.85" y1="78.72" x2="99.25" y2="118.99"
                        gradientUnits="userSpaceOnUse">
            <stop offset="0" stop-color="#006492"/>
            <stop offset="0.6" stop-color="#004b6e"/>
            <stop offset="1" stop-color="#003e5b"/>
        </linearGradient>
        <linearGradient id="linear-gradient-6" x1="100.18" y1="100.75" x2="100.18" y2="186.67"
                        gradientUnits="userSpaceOnUse">
            <stop offset="0" stop-color="#ffbf00"/>
            <stop offset="0.41" stop-color="#ffbc00"/>
            <stop offset="0.7" stop-color="#ffb300"/>
            <stop offset="0.94" stop-color="#ffa400"/>
            <stop offset="1" stop-color="#ff9f00"/>
        </linearGradient>
    </defs>
    <polygon class="cls-1"
             points="200.38 57.84 200.38 173.53 100.19 231.38 100.19 194.91 168.78 155.3 168.78 76.1 200.38 57.84"/>
    <polygon class="cls-2" points="100.19 194.91 100.19 231.38 0 173.53 0 57.84 31.59 76.1 31.59 155.3 100.19 194.91"/>
    <polygon class="cls-3"
             points="200.38 57.84 168.78 76.1 100.19 36.48 31.61 76.1 31.59 76.1 0 57.84 100.19 0 200.38 57.84"/>
    <polygon class="cls-4" points="100.19 115.7 100.19 53.22 46.08 84.46 46.08 146.93 100.19 115.7"/>
    <polygon class="cls-5" points="154.29 84.46 100.19 53.22 100.19 115.7 154.29 146.93 154.29 84.46"/>
    <polygon class="cls-6" points="100.19 178.17 154.29 146.93 100.19 115.7 46.08 146.93 100.19 178.17"/>
</svg>
