<?xml version="1.0" encoding="utf-8"?>
<!-- Generator: Adobe Illustrator 26.1.0, SVG Export Plug-In . SVG Version: 6.00 Build 0)  -->
<svg version="1.1" id="Слой_1" xmlns="http://www.w3.org/2000/svg" xmlns:xlink="http://www.w3.org/1999/xlink" x="0px" y="0px"
	 viewBox="0 0 40 40" style="enable-background:new 0 0 40 40;" xml:space="preserve">
<style type="text/css">
	.st0{fill:#232020;stroke:#000000;stroke-miterlimit:10;}
</style>
<g>
	<path class="st0" d="M21.9,37.5h-3.7c-0.7,0-1.3-0.6-1.3-1.3v-1.6c0-0.8-0.5-1.4-1.2-1.7c-0.6-0.2-1.1-0.4-1.7-0.7
		c-0.7-0.3-1.5-0.2-2,0.3l-1.2,1.2c-0.5,0.5-1.4,0.5-1.9,0l-2.6-2.6c-0.5-0.5-0.5-1.3,0-1.9L7.5,28c0.5-0.5,0.6-1.3,0.3-2
		c-0.3-0.5-0.5-1.1-0.7-1.7c-0.2-0.7-0.9-1.2-1.7-1.2H3.8c-0.7,0-1.3-0.6-1.3-1.3v-3.7c0-0.7,0.6-1.3,1.3-1.3h1.7
		c0.7,0,1.4-0.5,1.7-1.2c0.2-0.6,0.4-1.1,0.7-1.6c0.3-0.7,0.2-1.5-0.3-2l-1.2-1.2c-0.2-0.2-0.4-0.6-0.4-0.9c0-0.4,0.1-0.7,0.4-0.9
		l2.6-2.6c0.5-0.5,1.4-0.5,1.9,0L12,7.5c0.5,0.5,1.3,0.6,2,0.3c0.5-0.3,1.1-0.5,1.6-0.7c0.7-0.2,1.2-0.9,1.2-1.6V3.8
		c0-0.7,0.6-1.3,1.3-1.3h3.7c0.7,0,1.3,0.6,1.3,1.3v1.7c0,0.7,0.5,1.4,1.2,1.6c0.6,0.2,1.1,0.4,1.6,0.7c0.7,0.3,1.5,0.2,2-0.3
		l1.2-1.2c0.5-0.5,1.3-0.5,1.9,0l2.6,2.6c0.2,0.2,0.4,0.6,0.4,0.9c0,0.4-0.1,0.7-0.4,0.9L32.5,12c-0.5,0.5-0.6,1.3-0.3,2
		c0.3,0.5,0.5,1.1,0.7,1.6c0.2,0.7,0.9,1.2,1.7,1.2h1.7c0.7,0,1.3,0.6,1.3,1.3v3.7c0,0.7-0.6,1.3-1.3,1.3h-1.6
		c-0.8,0-1.4,0.5-1.7,1.2c-0.2,0.6-0.4,1.1-0.7,1.7c-0.3,0.7-0.2,1.5,0.3,2l1.2,1.2c0.5,0.5,0.5,1.3,0,1.9l-2.6,2.6
		c-0.5,0.5-1.3,0.5-1.9,0L28,32.5c-0.5-0.5-1.3-0.6-2-0.3c-0.5,0.3-1.1,0.5-1.7,0.7c-0.7,0.2-1.2,0.9-1.2,1.7v1.6
		C23.2,36.9,22.6,37.5,21.9,37.5z M13.2,31.1c0.4,0,0.8,0.1,1.2,0.3c0.5,0.2,1,0.5,1.5,0.6c1.1,0.4,1.9,1.4,1.9,2.6v1.6
		c0,0.2,0.1,0.3,0.3,0.3h3.7c0.2,0,0.3-0.1,0.3-0.3v-1.6c0-1.2,0.8-2.2,1.9-2.6c0.5-0.2,1-0.4,1.5-0.6c1-0.5,2.3-0.3,3.1,0.5
		l1.2,1.2c0.1,0.1,0.3,0.1,0.5,0l2.6-2.6c0.1-0.1,0.1-0.1,0.1-0.2c0-0.1,0-0.2-0.1-0.2l-1.2-1.2c-0.8-0.8-1-2.1-0.5-3.1
		c0.2-0.5,0.5-1,0.6-1.5c0.4-1.1,1.4-1.9,2.6-1.9h1.6c0.2,0,0.3-0.1,0.3-0.3v-3.7c0-0.2-0.1-0.3-0.3-0.3h-1.7
		c-1.2,0-2.2-0.7-2.6-1.9c-0.2-0.5-0.4-1-0.6-1.5c-0.5-1-0.3-2.3,0.5-3.1l1.2-1.2c0.1-0.1,0.1-0.1,0.1-0.2c0-0.1,0-0.2-0.1-0.2
		L30.4,7c-0.1-0.1-0.3-0.1-0.5,0l-1.2,1.2c-0.8,0.8-2.1,1-3.1,0.5c-0.5-0.2-1-0.5-1.5-0.6c-1.1-0.4-1.9-1.4-1.9-2.6V3.8
		c0-0.2-0.1-0.3-0.3-0.3h-3.7c-0.2,0-0.3,0.1-0.3,0.3v1.7c0,1.2-0.7,2.2-1.8,2.6c-0.5,0.2-1,0.4-1.5,0.6c-1,0.5-2.3,0.3-3.1-0.5
		L10.1,7C10,6.9,9.8,6.9,9.6,7L7,9.6C6.9,9.7,6.9,9.8,6.9,9.9c0,0.1,0,0.2,0.1,0.2l1.2,1.2c0.8,0.8,1,2.1,0.5,3.1
		c-0.2,0.5-0.5,1-0.6,1.5c-0.4,1.1-1.4,1.9-2.6,1.9H3.8c-0.2,0-0.3,0.1-0.3,0.3v3.7c0,0.2,0.1,0.3,0.3,0.3h1.6
		c1.2,0,2.2,0.8,2.6,1.9c0.2,0.5,0.4,1,0.6,1.5c0.5,1,0.3,2.3-0.5,3.1L7,29.9C6.9,30,6.9,30,6.9,30.1c0,0.1,0,0.2,0.1,0.2L9.6,33
		c0.1,0.1,0.3,0.1,0.5,0l1.2-1.2C11.8,31.3,12.5,31.1,13.2,31.1z"/>
	<path class="st0" d="M20,28.8c-4.8,0-8.8-3.9-8.8-8.8c0-4.8,3.9-8.8,8.8-8.8s8.8,3.9,8.8,8.8C28.8,24.8,24.8,28.8,20,28.8z
		 M20,12.1c-4.4,0-7.9,3.5-7.9,7.9c0,4.4,3.5,7.9,7.9,7.9c4.4,0,7.9-3.5,7.9-7.9C27.9,15.6,24.4,12.1,20,12.1z"/>
</g>
</svg>
