<?xml version="1.0" encoding="utf-8"?>
<!-- Generator: Adobe Illustrator 26.1.0, SVG Export Plug-In . SVG Version: 6.00 Build 0)  -->
<svg version="1.1" id="Слой_1" xmlns="http://www.w3.org/2000/svg" xmlns:xlink="http://www.w3.org/1999/xlink" x="0px" y="0px"
	 viewBox="0 0 40 40" style="enable-background:new 0 0 40 40;" xml:space="preserve">
<style type="text/css">
	.st0{fill:#232020;}
</style>
<g>
	<path class="st0" d="M5.1,35.5c-0.5,0-0.9-0.4-0.9-0.9v-16c0-0.5,0.4-0.9,0.9-0.9h7.2c0.5,0,0.9,0.4,0.9,0.9v15.9
		c0,0.2-0.1,0.5-0.3,0.7c-0.2,0.2-0.4,0.3-0.7,0.3H5.1z M11.4,33.6V19.5H6.1v14.1H11.4z"/>
	<path class="st0" d="M12.4,35H5.1c-0.2,0-0.4-0.2-0.4-0.4v-16c0-0.2,0.2-0.4,0.4-0.4h7.2c0.2,0,0.4,0.2,0.4,0.4v15.9
		C12.8,34.8,12.6,35,12.4,35z M5.6,34.1h6.3V19H5.6V34.1z"/>
	<path class="st0" d="M17,35.5c-0.5,0-0.9-0.4-0.9-0.9V11.1c0-0.5,0.4-0.9,0.9-0.9h7.2c0.5,0,0.9,0.4,0.9,0.9v23.4
		c0,0.5-0.4,0.9-0.9,0.9H17z M23.2,33.6V12h-5.3v21.6H23.2z"/>
	<path class="st0" d="M24.2,35H17c-0.2,0-0.4-0.2-0.4-0.4V11.1c0-0.2,0.2-0.4,0.4-0.4h7.2c0.2,0,0.4,0.2,0.4,0.4v23.5
		C24.6,34.8,24.4,35,24.2,35z M17.4,34.1h6.3V11.6h-6.3V34.1z"/>
	<path class="st0" d="M28.5,35.5c-0.5,0-0.9-0.4-0.9-0.9v-31c0-0.5,0.4-0.9,0.9-0.9h7.2c0.5,0,0.9,0.4,0.9,0.9v31
		c0,0.5-0.4,0.9-0.9,0.9H28.5z M34.8,33.6V4.5h-5.3v29.1H34.8z"/>
	<path class="st0" d="M35.7,35h-7.2c-0.2,0-0.4-0.2-0.4-0.4v-31c0-0.2,0.2-0.4,0.4-0.4h7.2c0.2,0,0.4,0.2,0.4,0.4v31
		C36.2,34.8,36,35,35.7,35z M29,34.1h6.3V4H29V34.1z"/>
</g>
</svg>
