<?xml version="1.0" encoding="utf-8"?>
<!-- Generator: Adobe Illustrator 26.1.0, SVG Export Plug-In . SVG Version: 6.00 Build 0)  -->
<svg version="1.1" id="Слой_1" xmlns="http://www.w3.org/2000/svg" xmlns:xlink="http://www.w3.org/1999/xlink" x="0px" y="0px"
	 viewBox="0 0 40 40" style="enable-background:new 0 0 40 40;" xml:space="preserve">
<style type="text/css">
	.st0{fill:#232020;}
</style>
<g>
	<path class="st0" d="M20.5,19.7c-4.7,0-8.5-3.8-8.5-8.5c0-4.7,3.8-8.5,8.5-8.5S29,6.5,29,11.2C29,15.9,25.2,19.7,20.5,19.7z
		 M20.5,4.6c-3.7,0-6.6,3-6.6,6.6c0,3.6,3,6.6,6.6,6.6s6.6-3,6.6-6.6C27.1,7.5,24.2,4.6,20.5,4.6z"/>
	<path class="st0" d="M20.5,19.2c-4.4,0-8-3.6-8-8s3.6-8,8-8s8,3.6,8,8C28.5,15.6,24.9,19.2,20.5,19.2z M20.5,4.1
		c-3.9,0-7.1,3.2-7.1,7.1s3.2,7.1,7.1,7.1s7.1-3.2,7.1-7.1C27.6,7.3,24.4,4.1,20.5,4.1z"/>
	<path class="st0" d="M10.9,36.4c-0.5,0-1-0.4-1-1v-6.8c0-6,4.8-10.8,10.8-10.8c5.9,0,10.8,4.8,10.8,10.8v6.8c0,0.5-0.4,1-1,1H10.9z
		 M29.6,34.5v-5.8c0-4.9-4-8.9-8.9-8.9c-4.9,0-8.9,4-8.9,8.9v5.8H29.6z"/>
	<path class="st0" d="M30.5,35.9H10.8c-0.2,0-0.4-0.2-0.4-0.5v-6.8c0-5.7,4.6-10.3,10.3-10.3S31,22.9,31,28.6v6.8
		C31,35.7,30.8,35.9,30.5,35.9z M11.3,35h18.8v-6.4c0-5.2-4.2-9.4-9.4-9.4s-9.4,4.2-9.4,9.4C11.3,28.6,11.3,35,11.3,35z"/>
</g>
</svg>
